<svg width="21" height="12" viewBox="0 0 21 12" fill="none" xmlns="http://www.w3.org/2000/svg">
<path id="Vector" d="M0.414741 9.62212L9.70506 0.304162C9.81565 0.193563 9.93547 0.115038 10.0645 0.0685869C10.1935 0.0221353 10.3318 -0.000721523 10.4792 1.58239e-05C10.6267 1.58444e-05 10.765 0.0228727 10.894 0.068587C11.023 0.114301 11.1428 0.192826 11.2534 0.304163L20.5714 9.62212C20.8295 9.88019 20.9585 10.2028 20.9585 10.5899C20.9585 10.977 20.8202 11.3088 20.5437 11.5853C20.2673 11.8618 19.9447 12 19.576 12C19.2073 12 18.8848 11.8618 18.6083 11.5853L10.4792 3.45623L2.35022 11.5853C2.09216 11.8433 1.774 11.9723 1.39575 11.9723C1.01751 11.9723 0.690501 11.8341 0.414741 11.5576C0.138244 11.2811 -4.88808e-06 10.9585 -4.83681e-06 10.5899C-4.78554e-06 10.2212 0.138244 9.89862 0.414741 9.62212Z" fill="black"/>
</svg>
