<svg width="21" height="13" viewBox="0 0 21 13" fill="none" xmlns="http://www.w3.org/2000/svg">
<path d="M0.414741 2.87788L9.70506 12.1958C9.81565 12.3064 9.93547 12.385 10.0645 12.4314C10.1935 12.4779 10.3318 12.5007 10.4792 12.5C10.6267 12.5 10.765 12.4771 10.894 12.4314C11.023 12.3857 11.1428 12.3072 11.2534 12.1958L20.5714 2.87788C20.8295 2.61981 20.9585 2.29723 20.9585 1.91014C20.9585 1.52304 20.8202 1.19124 20.5437 0.914746C20.2673 0.638249 19.9447 0.5 19.576 0.5C19.2073 0.5 18.8848 0.638249 18.6083 0.914746L10.4792 9.04377L2.35022 0.914749C2.09216 0.656684 1.774 0.527652 1.39575 0.527652C1.01751 0.527652 0.690501 0.665901 0.414741 0.942398C0.138244 1.2189 -4.88808e-06 1.54148 -4.83681e-06 1.91014C-4.78554e-06 2.2788 0.138244 2.60138 0.414741 2.87788Z" fill="black"/>
</svg>
