<svg width="51" height="46" viewBox="0 0 51 46" fill="none" xmlns="http://www.w3.org/2000/svg">
<mask id="mask0_240_1238" style="mask-type:luminance" maskUnits="userSpaceOnUse" x="0" y="0" width="51" height="46">
<path d="M21.7048 34.6582C21.6823 34.6287 13.7848 24.8512 1.80419 29.9273C2.89023 32.5674 7.88095 42.7079 20.6348 43.1048C18.797 40.8578 13.5447 35.8111 8.53302 34.4541C13.3728 31.286 23.2309 36.9141 23.167 40.6232C19.5757 36.7412 15.9728 35.3002 13.391 34.8016C18.7122 37.8502 22.6741 43.3827 22.6879 43.4022L23.4953 44.5157L22.1273 44.5518C5.25948 44.9993 0.228554 29.825 0.214235 29.7811L0 29.159L0.593137 28.8855C10.4485 24.3375 21.8915 30.7601 21.7048 34.6582ZM36.4991 13.5299C36.4991 13.5299 37.0845 14.0986 38.729 13.8757L38.7736 13.983C38.7736 13.983 38.1948 14.4383 37.2156 14.4461C37.4254 14.5434 37.7641 14.664 38.1519 14.6573L38.1722 14.7752C38.1722 14.7752 37.5257 15.0031 36.7596 14.8375C36.8929 14.9664 37.1242 15.1443 37.421 15.191L37.4299 15.3083C37.4299 15.3083 36.8835 15.4979 36.3108 15.3939C36.465 15.5051 36.682 15.6319 36.8912 15.6547L36.8885 15.7747C36.8885 15.7747 36.3378 15.8192 35.8851 15.7364C36.02 15.8203 36.2012 15.912 36.4149 15.9615L36.4049 16.081C36.4049 16.081 35.6515 16.12 35.1372 15.9715C35.1988 16.0649 35.3426 16.1967 35.6747 16.2795L35.6681 16.3979C35.6681 16.3979 34.9686 16.4869 34.4857 16.2584C34.5115 16.3607 34.5644 16.4991 34.6685 16.558L34.6338 16.6698C34.6338 16.6698 34.2141 16.6314 33.7345 16.4902C35.5128 30.8134 25.6624 43.2866 25.6249 43.3349L24.6744 44.5602L24.3594 43.0364C23.8241 40.4497 21.4647 27.5813 26.1239 20.4767C26.1167 20.5067 23.6522 30.3048 25.4575 41.1068C28.7933 36.1903 39.0105 18.5766 26.326 3.03698C24.6738 8.99753 22.0022 12.1874 19.5774 15.0815C16.7725 18.4287 14.3151 21.3617 14.3878 28.0444C11.947 21.8292 16.9686 15.9526 18.4825 14.1464C20.9806 11.1651 23.7503 7.85957 25.2763 1.3481L25.5924 0L26.5078 1.03067C30.7781 5.83325 32.8797 10.8499 33.6254 15.6797C34.5859 15.4996 35.9693 14.9909 36.4016 13.555L36.4297 13.461L36.5002 13.5294L36.4991 13.5299ZM39.9214 35.4948C43.4978 34.8394 46.4773 33.9571 48.0457 32.7853C48.4533 32.4812 48.7518 32.166 48.9242 31.8397C49.0734 31.555 49.1263 31.2532 49.0684 30.9341C49.0112 30.6105 48.8437 30.2514 48.5546 29.8584C47.9147 28.9561 47.2973 28.0177 46.6722 27.1027L47.3799 26.7213C47.3799 26.7213 48.0468 26.3622 48.0265 25.7045C48.0199 25.4666 47.9813 25.2932 47.9141 25.1987C47.9092 25.1898 47.9136 25.1892 47.9103 25.1881C47.9064 25.1853 47.9125 25.192 47.9036 25.192C47.533 24.7456 46.7389 24.7089 46.241 25.3727C46.1672 24.0874 47.6569 22.592 47.3089 22.5202C46.5026 22.3535 45.9744 22.0383 45.6594 21.6786C45.4804 21.4746 45.3653 21.255 45.3042 21.0359C45.2381 20.8013 45.2343 20.5662 45.2789 20.3449C45.3433 20.0297 45.5085 19.7479 45.7409 19.5405C45.9375 19.3654 46.5186 18.626 46.746 17.8594C46.8033 17.666 46.8336 17.4831 46.8187 17.328C46.8082 17.2168 46.773 17.1156 46.702 17.0361C46.6105 16.9305 46.4514 16.8371 46.2041 16.7632C45.872 16.6625 45.5818 16.5814 45.2717 16.4946C42.5709 15.743 38.5594 14.6262 37.676 11.2012C37.2019 9.35944 36.2056 6.8617 34.9835 4.77367C34.0385 3.16095 32.8434 1.16076 31.8256 0.62652C34.0285 0.706016 37.8374 6.08953 39.0628 10.8393C39.7369 13.4538 43.2726 14.4383 45.6528 15.1004C46.0257 15.2044 46.3743 15.3016 46.6149 15.3739C47.1321 15.5307 47.5088 15.7747 47.7742 16.0777C48.0634 16.4074 48.2071 16.7882 48.2446 17.1912C48.2787 17.552 48.2258 17.9184 48.1212 18.273C47.8106 19.3193 46.9746 20.3677 46.6898 20.6223C46.686 20.6257 46.6832 20.6296 46.6832 20.6329L46.6849 20.6446C46.6909 20.6657 46.7058 20.6918 46.7322 20.7207C46.8606 20.8669 47.1288 21.0065 47.5952 21.1026C49.2105 21.4362 48.9522 22.7771 48.4472 23.8483C48.4858 23.8639 48.5243 23.8822 48.5612 23.9017C48.7722 24.0095 48.9478 24.1691 49.0877 24.3709C49.3141 24.6972 49.4407 25.1392 49.4573 25.659C49.4842 26.5017 49.0706 27.1166 48.6862 27.504L49.7144 29.0089C50.1319 29.5821 50.3803 30.1391 50.4778 30.6789C50.5956 31.3349 50.491 31.9453 50.193 32.5145C49.9171 33.0399 49.4782 33.5152 48.8994 33.9471C47.1365 35.263 43.9511 36.2253 40.1741 36.9163C33.9316 38.0593 33.7669 45.9767 33.7664 46C31.9143 40.7766 35.3729 36.3276 39.9219 35.4948H39.9214Z" fill="white"/>
</mask>
<g mask="url(#mask0_240_1238)">
<path d="M50.5956 0.000946045H0V46.0004H50.5956V0.000946045Z" fill="url(#paint0_linear_240_1238)"/>
</g>
<defs>
<linearGradient id="paint0_linear_240_1238" x1="25.2978" y1="0.000946045" x2="25.2978" y2="46.0004" gradientUnits="userSpaceOnUse">
<stop offset="0.375" stop-color="#A2D95F"/>
<stop offset="1" stop-color="#59A938"/>
</linearGradient>
</defs>
</svg>
