<svg width="49" height="49" viewBox="0 0 49 49" fill="none" xmlns="http://www.w3.org/2000/svg">
<path d="M46.5714 36.2856C46.5714 41.9771 36.5943 46.5714 24.2857 46.5714C11.9771 46.5714 2 41.9771 2 36.2856" stroke="url(#paint0_linear_361_743)" stroke-width="3.42857" stroke-linecap="round" stroke-linejoin="round"/>
<path d="M32.8571 19.1429C32.8571 23.8743 25.9999 31.1429 24.2857 31.1429C22.5714 31.1429 15.7142 23.8743 15.7142 19.1429C15.7142 12.2857 24.2857 2 24.2857 2C24.2857 2 32.8571 12.2857 32.8571 19.1429Z" stroke="url(#paint1_linear_361_743)" stroke-width="3.42857" stroke-linecap="round" stroke-linejoin="round"/>
<path d="M17.0171 13.623C12.7302 12.0455 8.26003 11.0201 3.71423 10.5715C3.71423 10.5715 4.91423 23.9087 9.7828 28.743C13.2114 32.1715 23.1199 32.3772 24.3199 31.1772" stroke="url(#paint2_linear_361_743)" stroke-width="3.42857" stroke-linecap="round" stroke-linejoin="round"/>
<path d="M31.5543 13.623C35.8412 12.0455 40.3114 11.0201 44.8572 10.5715C44.8572 10.5715 43.6572 23.9087 38.7886 28.743C35.36 32.1715 25.4515 32.3772 24.2515 31.1772" stroke="url(#paint3_linear_361_743)" stroke-width="3.42857" stroke-linecap="round" stroke-linejoin="round"/>
<defs>
<linearGradient id="paint0_linear_361_743" x1="24.2857" y1="36.2856" x2="24.2857" y2="46.5714" gradientUnits="userSpaceOnUse">
<stop offset="0.375" stop-color="#A2D95F"/>
<stop offset="1" stop-color="#59A938"/>
</linearGradient>
<linearGradient id="paint1_linear_361_743" x1="24.2857" y1="2" x2="24.2857" y2="31.1429" gradientUnits="userSpaceOnUse">
<stop offset="0.375" stop-color="#A2D95F"/>
<stop offset="1" stop-color="#59A938"/>
</linearGradient>
<linearGradient id="paint2_linear_361_743" x1="14.0171" y1="10.5715" x2="14.0171" y2="31.8428" gradientUnits="userSpaceOnUse">
<stop offset="0.375" stop-color="#A2D95F"/>
<stop offset="1" stop-color="#59A938"/>
</linearGradient>
<linearGradient id="paint3_linear_361_743" x1="34.5543" y1="10.5715" x2="34.5543" y2="31.8428" gradientUnits="userSpaceOnUse">
<stop offset="0.375" stop-color="#A2D95F"/>
<stop offset="1" stop-color="#59A938"/>
</linearGradient>
</defs>
</svg>
