<svg width="50" height="50" viewBox="0 0 50 50" fill="none" xmlns="http://www.w3.org/2000/svg">
<path d="M47.4893 28.6904L33.102 47.8968L23.4988 40.7031" stroke="url(#paint0_linear_361_777)" stroke-width="3.42857" stroke-linecap="round" stroke-linejoin="round"/>
<path d="M17.8067 18.2143C22.1461 18.2143 25.6639 14.6965 25.6639 10.3571C25.6639 6.01776 22.1461 2.5 17.8067 2.5C13.4673 2.5 9.94958 6.01776 9.94958 10.3571C9.94958 14.6965 13.4673 18.2143 17.8067 18.2143Z" stroke="url(#paint1_linear_361_777)" stroke-width="3.42857" stroke-linecap="round" stroke-linejoin="round"/>
<path d="M10.8227 44.4046H2.09253V39.1665C2.09526 36.0606 3.01837 33.025 4.74526 30.4434C6.47216 27.8617 8.92538 25.8497 11.7951 24.6615C14.6648 23.4732 17.8223 23.1621 20.8687 23.7673C23.9152 24.3725 26.714 25.8669 28.9116 28.0618" stroke="url(#paint2_linear_361_777)" stroke-width="3.42857" stroke-linecap="round" stroke-linejoin="round"/>
<defs>
<linearGradient id="paint0_linear_361_777" x1="35.494" y1="28.6904" x2="35.494" y2="47.8968" gradientUnits="userSpaceOnUse">
<stop offset="0.375" stop-color="#A2D95F"/>
<stop offset="1" stop-color="#59A938"/>
</linearGradient>
<linearGradient id="paint1_linear_361_777" x1="17.8067" y1="2.5" x2="17.8067" y2="18.2143" gradientUnits="userSpaceOnUse">
<stop offset="0.375" stop-color="#A2D95F"/>
<stop offset="1" stop-color="#59A938"/>
</linearGradient>
<linearGradient id="paint2_linear_361_777" x1="15.5021" y1="23.4661" x2="15.5021" y2="44.4046" gradientUnits="userSpaceOnUse">
<stop offset="0.375" stop-color="#A2D95F"/>
<stop offset="1" stop-color="#59A938"/>
</linearGradient>
</defs>
</svg>
